<?xml version="1.0" encoding="iso-8859-1"?>
<!-- Generator: Adobe Illustrator 30.3.0, SVG Export Plug-In . SVG Version: 9.03 Build 0)  -->
<svg version="1.1" id="Layer_1" xmlns="http://www.w3.org/2000/svg" xmlns:xlink="http://www.w3.org/1999/xlink" x="0px" y="0px"
	 viewBox="0 0 512 512" style="enable-background:new 0 0 512 512;" xml:space="preserve">
<path style="fill:#A00D2D;" d="M337.922,123.259l13.287-0.038c3.787-0.011,8.163,0.016,11.796,0.694l13.141,2.45
	c8.815,1.643,17.285,5.247,25.4,9.116c9.189,4.381,17.566,10.07,25.19,16.739c0.488-0.122,0.947-0.075,1.338-0.067
	c3.806,6.658,11.678,12.044,16.539,20.487l-3.292,4.058c-0.95-0.478-2.034,0.825-2.706,1.247
	c-10.005,6.266-18.506,15.201-25.481,24.425c-8.532,11.283-15.396,23.773-18.65,37.714c-1.017,4.357-1.99,8.748-2.668,13.205
	c-0.609,4.003-0.852,7.961-1.086,12.03c-0.255,4.437,0.313,8.824,0.375,13.216c0.059,4.225,1.273,8.166,1.786,12.167
	c1.132,8.827,4.21,16.996,7.763,25.139c4.122,9.446,10.032,17.885,16.912,25.559c2.651,2.957,5.418,5.765,8.267,8.514
	c9.145,8.82,19.819,16.023,32.259,21.203l-2.418,8.258c-1.207,4.121-2.941,8.156-4.737,12.098l-11.332,24.879
	c-6.325,13.886-15.692,26.304-24.681,38.703c-15.287,21.087-33.468,43.381-58.945,49.416l-25.72-0.004l-17.923-6.785
	c-4.142-1.437-7.594-3.58-11.393-4.473c-1.352-0.318-3.435-1.475-4.906-2.071c-10.669-4.322-22.259-6.634-33.763-5.996
	l-11.926,0.662c-8.91,0.495-17.765,3.23-25.715,7.323c-2.506,1.29-5.878,1.866-9.002,3.274c-6.566,2.96-12.867,5.596-19.486,6.853
	c-1.168,0.222-2.921-0.434-3.59,1.218H167.32c-6.242-2.296-12.658-4.252-17.934-8.328l-5.256-4.06
	c-7.204-5.565-13.484-12.303-19.613-19.098c-1.651-1.83-3.451-4.069-4.98-5.947c-2.722-3.344-4.598-8.155-8.588-10.574
	c-0.095-0.331-0.358-0.957-0.24-1.439c-8.936-12.341-18.255-24.641-24.879-38.366l-12.18-25.234
	c-2.048-4.243-3.882-8.873-5.342-13.313l-7.873-23.939l-3.589-13.169l-2.549-12.021c-2.032-9.582-2.124-18.352-4.738-23.983
	l0.005-60.533l0.943-0.15c2.218-9.945,3.63-19.827,6.784-29.183c2.879-8.538,6.446-17.136,10.851-24.967
	c7.906-14.056,17.954-26.438,29.414-37.672c0.334-0.097,0.932-0.374,1.463-0.233c13.288-11.144,28.935-18.843,45.572-23.874
	c1.44-0.435,3.275-0.99,4.742-1.255l12.035-2.169l13.161-0.666l12.159,1.193c4.204,0.412,8.811,0.957,12.683,2.345l25.486,9.136
	c8.358,2.996,16.487,7.015,25.323,8.372c4.229,0.65,8.042,0.805,12.217,0.043c8.763-1.599,16.934-5.47,25.295-8.45l25.466-9.076
	c3.985-1.42,8.593-2.373,12.842-2.958L337.922,123.259z"/>
<path style="fill:#08872F;" d="M353.575,2.186l0.336,10.842l-1.129,13.27l-2.678,11.905c-1.965,8.737-5.732,17.118-10.196,24.831
	c-9.773,16.885-22.634,31.281-39.491,41.258c-7.782,4.606-16.042,9.46-24.958,10.91l-13.263,2.157
	c-2.294,0.373-7.234,0.512-9.2-1.231c-2.639-4.289-1.527-9.792-1.617-14.132c-0.037-1.788,0.176-4.279,0.46-5.899l1.251-7.144
	l3.641-11.994c1.289-4.245,4.45-8.896,5.494-13.315c0.167-0.705,0.89-1.961,1.265-2.588c2.516-2.085,4.126-6.47,5.949-9.28
	c11.016-16.979,26.268-29.603,43.824-39.485c2.283-1.285,5.284-2.498,8.366-3.586l18.003-6.523L353.575,2.186z"/>
<path style="fill:#EEEEEE;" d="M196.144,503.252l0.015,1.218h-3.605C193.223,502.818,194.976,503.474,196.144,503.252z"/>
</svg>
