<?xml version="1.0" encoding="iso-8859-1"?>
<!-- Generator: Adobe Illustrator 30.3.0, SVG Export Plug-In . SVG Version: 9.03 Build 0)  -->
<svg version="1.1" id="Layer_1" xmlns="http://www.w3.org/2000/svg" xmlns:xlink="http://www.w3.org/1999/xlink" x="0px" y="0px"
	 viewBox="0 0 1920 1080" style="enable-background:new 0 0 1920 1080;" xml:space="preserve">
<image style="overflow:visible;" width="152" height="157" xlink:href="24B48D0.jpg"  transform="matrix(4.5469 0 0 4.7898 503.5724 136.0652)">
</image>
<path style="fill:#0E5B13;stroke:#0A4F1D;stroke-width:10;stroke-miterlimit:10;" d="M980.522,159.043
	c0,0,22.304,137.348-139.696,160.826C840.826,319.87,818.522,206,980.522,159.043z"/>
<path style="fill:none;stroke:#004FE9;stroke-miterlimit:10;" d="M1117.87,389.13"/>
<path style="fill:none;stroke:#004FE9;stroke-miterlimit:10;" d="M1146.043,488.913"/>
<linearGradient id="SVGID_1_" gradientUnits="userSpaceOnUse" x1="533.8385" y1="574.2572" x2="1133.1305" y2="574.2572">
	<stop  offset="0.0819" style="stop-color:#BF3000"/>
	<stop  offset="1" style="stop-color:#000000"/>
</linearGradient>
<path style="fill:url(#SVGID_1_);stroke:#4F0208;stroke-width:8;stroke-miterlimit:10;" d="M1104.957,389.13
	c0,0-7.043-44.609-99.783-63.391c-92.739-18.783-146.739,25.826-146.739,25.826s-29.348,15.421-127.956-30.442
	c0,0-104.478-3.602-160.826,79.746s-29.348,193.696-29.348,193.696s65.739,183.13,102.13,183.13c0,0,34.044,44.609,54,44.609
	c19.957,0,61.63,18.196,93.913-14.087c0,0,66.913-12.913,91.565-4.696c24.652,8.217,56.348,23.892,95.087,23.892
	s82.174-42.675,113.87-90.805l42.261-79.826c0,0-78.652-30.522-86.87-75.13s-21.13-62.217-11.739-104.478
	C1043.913,434.913,1092.63,401.457,1104.957,389.13z"/>
<g>
	<path d="M345.735,292.086l11.057-0.031c3.151-0.009,6.793,0.014,9.817,0.577l10.936,2.039c7.336,1.367,14.384,4.367,21.138,7.587
		c7.647,3.646,14.619,8.38,20.963,13.93c0.406-0.102,0.788-0.063,1.114-0.055c3.167,5.54,9.718,10.023,13.764,17.049l-2.74,3.377
		c-0.791-0.398-1.692,0.687-2.252,1.037c-8.326,5.214-15.401,12.65-21.205,20.326c-7.1,9.39-12.812,19.784-15.52,31.385
		c-0.846,3.626-1.656,7.28-2.221,10.989c-0.507,3.331-0.709,6.625-0.904,10.012c-0.212,3.693,0.261,7.343,0.312,10.998
		c0.049,3.516,1.059,6.796,1.486,10.125c0.942,7.346,3.503,14.144,6.46,20.92c3.43,7.861,8.349,14.883,14.074,21.27
		c2.206,2.461,4.509,4.798,6.88,7.085c7.61,7.34,16.493,13.334,26.845,17.645l-2.013,6.872c-1.004,3.429-2.448,6.788-3.942,10.068
		l-9.431,20.704c-5.264,11.556-13.059,21.89-20.539,32.209c-12.722,17.548-27.852,36.101-49.054,41.124l-21.404-0.003l-14.915-5.646
		c-3.447-1.196-6.32-2.98-9.482-3.723c-1.125-0.264-2.858-1.227-4.083-1.723c-8.879-3.596-18.523-5.521-28.097-4.99l-9.925,0.551
		c-7.415,0.412-14.784,2.688-21.4,6.094c-2.085,1.073-4.891,1.552-7.491,2.725c-5.464,2.464-10.708,4.657-16.216,5.703
		c-0.972,0.185-2.431-0.361-2.987,1.013h-21c-5.195-1.911-10.534-3.538-14.924-6.93l-4.374-3.379
		c-5.995-4.631-11.221-10.239-16.322-15.893c-1.374-1.523-2.872-3.386-4.145-4.949c-2.265-2.783-3.826-6.786-7.147-8.799
		c-0.079-0.275-0.298-0.797-0.2-1.198c-7.436-10.27-15.191-20.506-20.704-31.928l-10.136-20.999
		c-1.704-3.531-3.231-7.384-4.446-11.079l-6.552-19.922l-2.987-10.959l-2.121-10.004c-1.691-7.974-1.768-15.272-3.943-19.959
		l0.004-50.375l0.785-0.125c1.846-8.276,3.02-16.5,5.646-24.286c2.396-7.106,5.364-14.261,9.03-20.778
		c6.579-11.698,14.942-22.002,24.478-31.35c0.278-0.081,0.776-0.311,1.218-0.194c11.058-9.274,24.079-15.681,37.925-19.867
		c1.198-0.362,2.726-0.824,3.946-1.044l10.015-1.805l10.952-0.554l10.119,0.993c3.499,0.343,7.332,0.796,10.555,1.951l21.21,7.603
		c6.955,2.493,13.72,5.838,21.073,6.967c3.519,0.541,6.693,0.67,10.167,0.036c7.292-1.331,14.092-4.552,21.05-7.032l21.193-7.553
		c3.316-1.182,7.151-1.975,10.687-2.462L345.735,292.086z"/>
	<path d="M358.761,191.33l0.28,9.022l-0.94,11.043l-2.228,9.907c-1.635,7.271-4.77,14.246-8.485,20.664
		c-8.133,14.051-18.835,26.032-32.864,34.334c-6.476,3.833-13.35,7.872-20.77,9.079l-11.038,1.795
		c-1.909,0.311-6.02,0.426-7.656-1.024c-2.196-3.569-1.271-8.149-1.346-11.76c-0.031-1.488,0.147-3.561,0.383-4.909l1.041-5.946
		l3.03-9.981c1.073-3.533,3.703-7.403,4.572-11.081c0.139-0.587,0.74-1.632,1.053-2.154c2.094-1.735,3.434-5.384,4.951-7.723
		c9.167-14.13,21.86-24.636,36.47-32.859c1.9-1.069,4.398-2.079,6.962-2.984l14.982-5.428L358.761,191.33z"/>
	<path style="fill:#EEEEEE;" d="M347.159,191.326l-14.982,5.428c-2.564,0.905-5.062,1.915-6.962,2.984l-0.454-8.409L347.159,191.326
		z"/>
	<path style="fill:#EEEEEE;" d="M227.748,608.313l0.013,1.013h-3C225.317,607.951,226.777,608.497,227.748,608.313z"/>
</g>
</svg>
