<?xml version="1.0" encoding="iso-8859-1"?>
<!-- Generator: Adobe Illustrator 30.3.0, SVG Export Plug-In . SVG Version: 9.03 Build 0)  -->
<svg version="1.1" id="Layer_1" xmlns="http://www.w3.org/2000/svg" xmlns:xlink="http://www.w3.org/1999/xlink" x="0px" y="0px"
	 viewBox="0 0 1920 1080" style="enable-background:new 0 0 1920 1080;" xml:space="preserve">
<rect x="45.19" y="100.619" style="fill:#E5BBFF;stroke:#000000;stroke-width:1.0036;stroke-miterlimit:10;" width="263.619" height="263.619"/>
<path style="fill:#E5BBFF;stroke:#000000;stroke-width:1.0036;stroke-miterlimit:10;" d="M676.238,298.714H407.667
	c-6.6,0-12-5.4-12-12v-116.19c0-6.6,5.4-12,12-12h268.571c6.6,0,12,5.4,12,12v116.19
	C688.238,293.314,682.838,298.714,676.238,298.714z"/>
<circle style="fill:#E5BBFF;stroke:#000000;stroke-width:1.0036;stroke-miterlimit:10;" cx="862.214" cy="228.619" r="100.833"/>
<polygon style="fill:#E5BBFF;stroke:#000000;stroke-width:1.2565;stroke-miterlimit:10;" points="1140.458,127.786 
	1044.846,197.128 1081.367,309.327 1199.55,309.327 1236.07,197.128 "/>
<polygon style="fill:#E5BBFF;stroke:#000000;stroke-width:1.2565;stroke-miterlimit:10;" points="1525.554,64.997 1359.494,64.997 
	1276.464,208.81 1359.494,352.622 1525.554,352.622 1608.584,208.81 "/>
<polygon style="fill:#E5BBFF;stroke:#000000;stroke-width:1.2565;stroke-miterlimit:10;" points="244.281,438.499 141.65,438.499 
	58.619,498.824 26.905,596.431 58.619,694.039 141.65,754.364 244.281,754.364 327.311,694.039 359.025,596.431 327.311,498.824 "/>
<polygon style="fill:#E5BBFF;stroke:#000000;stroke-width:1.2565;stroke-miterlimit:10;" points="1104.682,764.784 982.13,674.226 
	858.134,762.795 906.39,618.257 783.838,527.699 936.213,528.929 984.469,384.391 1030.386,529.688 1182.761,530.918 
	1058.764,619.487 "/>
<polygon style="fill:#E5BBFF;stroke:#000000;stroke-width:1.2565;stroke-miterlimit:10;" points="1553.234,754.631 
	1465.121,656.599 1483.35,787.143 1436.601,663.902 1406.44,792.215 1407.368,660.408 1332.892,769.162 1381.371,646.59 
	1272.638,721.096 1362.122,624.314 1233.817,654.51 1352.219,596.589 1221.67,578.397 1353.001,567.159 1237.839,503.035 
	1364.361,539.998 1280.14,438.604 1384.766,518.776 1342.86,393.804 1411.459,506.357 1417.528,374.686 1440.836,504.42 
	1494.06,383.833 1468.929,513.225 1562.12,420.008 1491.944,531.585 1612.516,478.327 1506.772,557.018 1638.441,550.912 
	1511.412,586.091 1636.395,627.962 1505.236,614.877 1606.654,699.069 1489.078,639.487 "/>
<polygon style="fill:#E5BBFF;stroke:#000000;stroke-width:1.2565;stroke-miterlimit:10;" points="623.06,434.535 549.156,434.535 
	482.571,466.6 436.493,524.381 420.048,596.431 436.493,668.482 482.571,726.263 549.156,758.328 623.06,758.328 689.645,726.263 
	735.723,668.482 752.168,596.431 735.723,524.381 689.645,466.6 "/>
</svg>
